HIERARCHY
ROOT Hips
{
	OFFSET 0.00000 0.00000 0.00000
	CHANNELS 6 Xposition Yposition Zposition Zrotation Yrotation Xrotation 
	JOINT LHipJoint
	{
		OFFSET 0 0 0
		CHANNELS 3 Zrotation Yrotation Xrotation
		JOINT LeftUpLeg
		{
			OFFSET 1.61024 -1.73873 0.75100
			CHANNELS 3 Zrotation Yrotation Xrotation
			JOINT LeftLeg
			{
				OFFSET 2.29819 -6.31424 0.00000
				CHANNELS 3 Zrotation Yrotation Xrotation
				JOINT LeftFoot
				{
					OFFSET 2.76618 -7.60002 0.00000
					CHANNELS 3 Zrotation Yrotation Xrotation
					JOINT LeftToeBase
					{
						OFFSET 0.16838 -0.46263 2.02361
						CHANNELS 3 Zrotation Yrotation Xrotation
						End Site
						{
							OFFSET 0.00000 -0.00000 1.04662
						}
					}
				}
			}
		}
	}
	JOINT RHipJoint
	{
		OFFSET 0 0 0
		CHANNELS 3 Zrotation Yrotation Xrotation
		JOINT RightUpLeg
		{
			OFFSET -1.46153 -1.73873 0.75100
			CHANNELS 3 Zrotation Yrotation Xrotation
			JOINT RightLeg
			{
				OFFSET -2.38373 -6.54924 0.00000
				CHANNELS 3 Zrotation Yrotation Xrotation
				JOINT RightFoot
				{
					OFFSET -2.80314 -7.70157 0.00000
					CHANNELS 3 Zrotation Yrotation Xrotation
					JOINT RightToeBase
					{
						OFFSET -0.16142 -0.44349 2.02101
						CHANNELS 3 Zrotation Yrotation Xrotation
						End Site
						{
							OFFSET -0.00000 -0.00000 1.04381
						}
					}
				}
			}
		}
	}
	JOINT LowerBack
	{
		OFFSET 0 0 0
		CHANNELS 3 Zrotation Yrotation Xrotation
		JOINT Spine
		{
			OFFSET -0.01629 1.66985 0.14750
			CHANNELS 3 Zrotation Yrotation Xrotation
			JOINT Spine1
			{
				OFFSET 0.02086 1.62378 0.20980
				CHANNELS 3 Zrotation Yrotation Xrotation
				JOINT Neck
				{
					OFFSET 0 0 0
					CHANNELS 3 Zrotation Yrotation Xrotation
					JOINT Neck1
					{
						OFFSET -0.05690 1.78719 0.08702
						CHANNELS 3 Zrotation Yrotation Xrotation
						JOINT Head
						{
							OFFSET 0.16035 1.73871 -0.38470
							CHANNELS 3 Zrotation Yrotation Xrotation
							End Site
							{
								OFFSET 0.05645 1.80914 -0.14081
							}
						}
					}
				}
				JOINT LeftShoulder
				{
					OFFSET 0 0 0
					CHANNELS 3 Zrotation Yrotation Xrotation
					JOINT LeftArm
					{
						OFFSET 2.83089 1.66494 -0.46008
						CHANNELS 3 Zrotation Yrotation Xrotation
						JOINT LeftForeArm
						{
							OFFSET 5.54893 -0.00000 -0.00000
							CHANNELS 3 Zrotation Yrotation Xrotation
							JOINT LeftHand
							{
								OFFSET 3.02898 -0.00000 -0.00000
								CHANNELS 3 Zrotation Yrotation Xrotation
								JOINT LeftFingerBase
								{
									OFFSET 0 0 0
									CHANNELS 3 Zrotation Yrotation Xrotation
									JOINT LeftHandIndex1
									{
										OFFSET 0.64095 -0.00000 -0.00000
										CHANNELS 3 Zrotation Yrotation Xrotation
										End Site
										{
											OFFSET 0.51675 -0.00000 -0.00000
										}
									}
								}
								JOINT LThumb
								{
									OFFSET 0 0 0
									CHANNELS 3 Zrotation Yrotation Xrotation
									End Site
									{
										OFFSET 0.52464 -0.00000 0.52464
									}
								}
							}
						}
					}
				}
				JOINT RightShoulder
				{
					OFFSET 0 0 0
					CHANNELS 3 Zrotation Yrotation Xrotation
					JOINT RightArm
					{
						OFFSET -2.84442 1.45761 -0.18088
						CHANNELS 3 Zrotation Yrotation Xrotation
						JOINT RightForeArm
						{
							OFFSET -5.35190 -0.00000 -0.00000
							CHANNELS 3 Zrotation Yrotation Xrotation
							JOINT RightHand
							{
								OFFSET -3.02531 -0.00000 -0.00000
								CHANNELS 3 Zrotation Yrotation Xrotation
								JOINT RightFingerBase
								{
									OFFSET 0 0 0
									CHANNELS 3 Zrotation Yrotation Xrotation
									JOINT RightHandIndex1
									{
										OFFSET -0.78389 -0.00000 -0.00000
										CHANNELS 3 Zrotation Yrotation Xrotation
										End Site
										{
											OFFSET -0.63199 -0.00000 -0.00000
										}
									}
								}
								JOINT RThumb
								{
									OFFSET 0 0 0
									CHANNELS 3 Zrotation Yrotation Xrotation
									End Site
									{
										OFFSET -0.64164 -0.00000 0.64164
									}
								}
							}
						}
					}
				}
			}
		}
	}
}
MOTION
Frames: 13
Frame Time: .0083333
-1.0609 17.6810 2.2749 -175.3570 96.8795 -141.7270 0.0000 0.0000 0.0000 -1.4717 -11.3335 -46.1031 2.3042 9.4728 27.2858 -1.3452 20.0116 -7.1439 2.2879 -9.4417 -27.1870 0.0000 0.0000 0.0000 1.5555 24.1771 -48.7021 -1.9999 -8.8658 25.3765 -0.0272 -6.4219 -9.8303 -1.8947 8.6432 -24.6855 2.0719 -4.5062 13.8975 3.4784 -5.2966 0.2389 3.5914 -2.5510 -7.3849 0.0233 5.5282 -3.4756 -4.6138 7.4746 0.8779 -1.2796 3.6825 1.0407 0.0000 -0.0000 0.0000 -98.5590 -41.4533 49.2869 143.2671 -46.0106 -103.9524 -0.0000 0.0000 -3.9109 10.5965 27.9548 5.0120 -7.1250 0.0000 -0.0000 -21.7786 56.9867 -6.6106 0.0000 -0.0000 0.0000 86.5212 45.2555 32.3272 -151.1411 39.8950 -109.3299 0.0000 0.0000 26.5066 12.8895 -0.2665 -0.0610 7.1250 -0.0000 -0.0000 29.8219 -29.2281 13.1612
-1.0721 17.6614 2.2605 -177.4990 96.0881 -143.8800 0.0000 0.0000 0.0000 -0.9274 -11.6706 -46.2454 2.3075 9.4791 27.3059 -1.3432 19.9940 -7.3809 2.2836 -9.4333 -27.1605 0.0000 0.0000 0.0000 1.9967 23.9568 -48.9224 -2.0765 -9.0237 25.8696 -0.0401 -6.4327 -10.1418 -1.7128 8.2404 -23.4467 1.8836 -4.4832 13.8342 3.5231 -5.2968 0.3671 3.7282 -2.5462 -7.1900 0.0249 5.6172 -3.2344 -4.4295 7.5675 0.3743 -1.2344 3.7439 0.8352 0.0000 -0.0000 0.0000 -98.3941 -41.0470 49.1554 143.2930 -45.9933 -103.9711 -0.0000 0.0000 -2.6138 9.4665 28.3164 4.5222 -7.1250 0.0000 -0.0000 -23.1644 57.0842 -7.1177 0.0000 -0.0000 0.0000 86.5705 45.3887 32.3517 -150.7972 40.2002 -109.1087 0.0000 0.0000 26.3456 13.3591 -0.1409 -0.0335 7.1250 -0.0000 -0.0000 30.1017 -29.0839 13.4474
-1.0825 17.6422 2.2436 -179.3980 95.3895 -145.7130 0.0000 0.0000 0.0000 -0.5337 -11.9821 -46.4934 2.3085 9.4812 27.3124 -1.3468 20.0221 -7.1914 2.5215 -9.8769 -28.5790 0.0000 0.0000 0.0000 2.2363 23.7673 -49.2568 -2.1554 -9.1826 26.3682 -0.0544 -6.4206 -10.4426 -1.6623 8.1241 -23.0918 1.7037 -4.3310 14.4078 3.5975 -5.0883 0.0040 3.9457 -2.4254 -7.8887 -0.1774 5.5988 -3.0260 -4.1609 7.5442 0.4708 -1.1230 3.7342 0.8088 -0.0000 0.0000 0.0000 -98.5583 -40.0014 49.3055 143.3592 -45.9488 -104.0187 -0.0000 0.0000 -1.3170 8.0082 28.6254 3.8559 -7.1250 0.0000 -0.0000 -24.8416 57.0612 -7.6624 -0.0000 0.0000 0.0000 86.1153 44.7772 31.9414 -150.4883 40.4712 -108.9087 0.0000 0.0000 26.2834 13.7233 0.0845 0.0206 7.1250 -0.0000 -0.0000 30.2805 -28.8579 13.7479
-1.0931 17.6121 2.2247 -182.4860 94.7123 -148.7560 0.0000 0.0000 0.0000 -0.1574 -12.2079 -46.7597 2.3214 9.5057 27.3904 -1.3439 20.0146 -6.7219 2.9241 -10.5712 -30.8471 0.0000 0.0000 0.0000 2.5072 23.6414 -49.5170 -2.2216 -9.3131 26.7799 -0.0605 -6.4961 -10.6663 -1.6248 8.0365 -22.8249 1.7980 -4.2234 14.0441 3.4076 -4.9662 0.2083 3.6180 -2.3808 -7.4951 -0.0531 5.5710 -2.6954 -3.8812 7.4758 -0.0977 -1.0769 3.7163 0.5679 -0.0000 -0.0000 0.0000 -98.1966 -39.8052 49.3532 143.5028 -45.8521 -104.1217 -0.0000 0.0000 -0.2611 6.3397 29.5013 3.1316 -7.1250 0.0000 -0.0000 -27.1587 57.4925 -8.7380 -0.0000 -0.0000 0.0000 86.2851 44.8886 31.7765 -150.1316 40.7804 -108.6764 0.0000 0.0000 26.4625 14.0687 0.3718 0.0932 7.1250 -0.0000 -0.0000 30.4276 -28.5779 14.0796
-1.1038 17.5927 2.2075 -186.3440 94.1058 -152.6000 0.0000 0.0000 0.0000 0.3982 -12.6091 -46.8768 2.3338 9.5292 27.4653 -1.3126 19.7826 -8.0823 2.4950 -9.8288 -28.4240 0.0000 0.0000 0.0000 2.7767 23.5527 -49.7145 -2.2875 -9.4409 27.1844 -0.0631 -6.6610 -10.9253 -1.6552 8.1075 -23.0410 1.6153 -4.0777 14.4020 3.3887 -4.7884 0.0815 3.7039 -2.2825 -7.8263 0.0019 5.5586 -2.7024 -3.6866 7.4538 -0.1439 -1.0269 3.7073 0.5481 0.0000 0.0000 0.0000 -98.3482 -39.0584 49.3452 143.6077 -45.7811 -104.1970 -0.0000 -0.0000 0.9574 4.4318 30.0985 2.2258 -7.1250 0.0000 -0.0000 -29.5145 57.6094 -9.6704 0.0000 0.0000 0.0000 86.1499 44.5746 31.4450 -149.8445 41.0263 -108.4884 0.0000 0.0000 26.4258 14.9010 0.8009 0.2131 7.1250 -0.0000 -0.0000 30.8516 -28.1356 14.7342
-1.1095 17.5839 2.1887 -193.1810 93.4059 -159.6420 0.0000 0.0000 0.0000 1.1501 -13.2378 -46.6725 2.3404 9.5418 27.5053 -1.2659 19.5559 -9.7297 1.9832 -8.8311 -25.2684 0.0000 0.0000 0.0000 3.3030 23.3781 -49.6352 -2.3638 -9.5860 27.6463 -0.0723 -6.7867 -11.2685 -1.7233 8.2642 -23.5196 1.6526 -4.0425 14.3457 3.2893 -4.7472 0.4110 3.5417 -2.2693 -7.4528 0.1155 5.5825 -2.6677 -3.4504 7.4693 -0.6184 -0.9815 3.7249 0.3905 0.0000 0.0000 0.0000 -98.3265 -38.7693 49.2226 143.5851 -45.7964 -104.1808 -0.0000 -0.0000 2.1114 2.2397 30.5143 1.1376 -7.1250 0.0000 -0.0000 -31.9940 57.4992 -10.5081 0.0000 0.0000 0.0000 86.4015 44.7387 31.3968 -149.5588 41.2686 -108.3004 0.0000 0.0000 26.5537 15.6799 1.2060 0.3385 7.1250 -0.0000 -0.0000 31.2399 -27.7166 15.3634
-1.1129 17.5607 2.1671 -200.5300 92.7225 -167.1920 0.0000 0.0000 0.0000 1.5294 -13.7355 -46.5191 2.3442 9.5489 27.5279 -1.2501 19.4941 -10.1797 2.0351 -8.9387 -25.6038 0.0000 0.0000 0.0000 3.7544 22.9830 -49.6280 -2.4479 -9.7426 28.1472 -0.0844 -6.8041 -11.5262 -1.7923 8.4194 -23.9954 1.4501 -4.0327 14.5509 3.2476 -4.7621 0.6082 3.6179 -2.2697 -7.3413 0.2130 5.6578 -2.9008 -3.2341 7.5666 -0.7323 -0.9245 3.7750 0.3901 0.0000 -0.0000 0.0000 -98.3755 -38.2614 49.0232 143.6396 -45.7595 -104.2199 -0.0000 -0.0000 3.4230 -0.1285 30.8116 -0.0658 -7.1250 0.0000 -0.0000 -34.5207 57.2467 -11.2567 0.0000 -0.0000 0.0000 86.5557 44.7779 31.5343 -149.3262 41.4640 -108.1467 0.0000 0.0000 26.9982 16.3248 1.4767 0.4324 7.1250 -0.0000 -0.0000 31.5744 -27.4253 15.8555
-1.1236 17.5216 2.1448 -213.4230 92.1724 -179.9510 0.0000 0.0000 0.0000 1.9536 -14.0196 -46.7995 2.3442 9.5489 27.5279 -1.2371 19.4514 -10.5583 2.0957 -9.0626 -25.9913 0.0000 0.0000 0.0000 4.0705 22.6901 -50.0923 -2.5412 -9.9125 28.6939 -0.0982 -6.8026 -11.7884 -1.7894 8.4129 -23.9753 1.3015 -3.9606 14.4282 3.2639 -4.6955 0.6808 3.6896 -2.2349 -7.1841 0.1486 5.6968 -3.0329 -2.9063 7.6182 -0.9296 -0.8128 3.8052 0.3351 -0.0000 -0.0000 0.0000 -98.4313 -38.0614 48.7108 143.3147 -45.9787 -103.9867 -0.0000 -0.0000 4.6240 -2.3693 30.9553 -1.2192 -7.1250 0.0000 -0.0000 -36.7617 56.8941 -11.8014 -0.0000 -0.0000 0.0000 86.5642 44.7819 31.6507 -149.0411 41.7012 -107.9575 0.0000 0.0000 27.2349 16.9359 1.4874 0.4529 7.1250 -0.0000 -0.0000 31.9581 -27.3654 16.1787
-1.1325 17.4915 2.1213 -235.1350 91.7529 -201.5140 0.0000 0.0000 0.0000 2.4392 -14.3804 -47.0150 2.3202 9.5034 27.3832 -1.2105 19.3610 -11.1895 2.0133 -8.8936 -25.4632 0.0000 0.0000 0.0000 4.3446 22.4243 -50.6184 -2.6602 -10.1235 29.3775 -0.1250 -6.7660 -12.2384 -1.7274 8.2735 -23.5480 1.2612 -3.8804 14.2670 3.2937 -4.5998 0.7270 3.7083 -2.1891 -7.0435 -0.0820 5.6772 -3.0011 -2.4462 7.5950 -1.2532 -0.6438 3.8017 0.2016 0.0000 0.0000 0.0000 -98.4008 -38.6167 48.1836 141.9315 -46.8830 -102.9844 -0.0000 -0.0000 5.3503 -4.6182 31.1788 -2.3947 -7.1250 0.0000 -0.0000 -39.0526 56.6048 -12.4136 0.0000 0.0000 0.0000 86.5667 44.6955 31.7462 -148.6272 42.0414 -107.6813 0.0000 0.0000 27.2202 17.4804 1.3355 0.4205 7.1250 -0.0000 -0.0000 32.3447 -27.4532 16.3698
-1.1374 17.4668 2.0947 -265.1090 91.7445 -231.5130 0.0000 0.0000 0.0000 2.9887 -14.8405 -46.9498 2.2818 9.4299 27.1495 -1.1962 19.3575 -11.7411 2.0890 -9.0490 -25.9487 0.0000 0.0000 0.0000 4.7236 22.1993 -50.9300 -2.7888 -10.3450 30.1013 -0.1469 -6.8551 -12.7228 -1.7408 8.3039 -23.6410 1.3712 -3.7440 14.2370 3.3498 -4.3961 0.8124 3.6587 -2.0924 -6.9492 -0.3573 5.5777 -3.1250 -2.1190 7.4727 -1.3601 -0.5015 3.7442 0.1634 0.0000 0.0000 0.0000 -98.6043 -37.9439 48.3063 141.7835 -46.9770 -102.8763 -0.0000 -0.0000 6.5923 -7.1818 31.6680 -3.7848 -7.1250 0.0000 -0.0000 -41.8492 56.4537 -13.3727 0.0000 0.0000 0.0000 86.3794 44.6017 31.5513 -148.1355 42.4389 -107.3507 0.0000 0.0000 27.2719 18.5515 1.2396 0.4160 7.1250 -0.0000 -0.0000 33.0386 -27.4409 16.8817
-1.1409 17.4300 2.0639 -288.0240 91.9913 -254.4090 0.0000 0.0000 0.0000 3.3256 -15.3297 -46.8793 2.2364 9.3420 26.8712 -1.2045 19.4890 -12.1436 2.3119 -9.4876 -27.3329 0.0000 0.0000 0.0000 4.9151 21.8797 -51.3401 -2.9201 -10.5646 30.8251 -0.1750 -6.8169 -13.1524 -1.7271 8.2728 -23.5458 1.3753 -3.5993 14.2127 3.3697 -4.2024 0.8092 3.6378 -1.9976 -6.9470 -0.5981 5.5067 -3.2886 -1.7823 7.3901 -1.2366 -0.3568 3.7030 0.2038 -0.0000 0.0000 0.0000 -98.9353 -37.3364 48.3854 141.6307 -47.0735 -102.7645 -0.0000 -0.0000 8.0854 -10.2147 32.4790 -5.5269 -7.1250 0.0000 -0.0000 -45.3502 56.4311 -14.8146 -0.0000 0.0000 0.0000 86.1201 44.3902 31.3423 -147.7286 42.7625 -107.0752 0.0000 0.0000 27.4364 19.6407 1.0320 0.3683 7.1250 -0.0000 -0.0000 33.7677 -27.5178 17.3439
-1.1462 17.3977 2.0328 -306.0550 92.3375 -272.4180 0.0000 0.0000 0.0000 3.5091 -15.9077 -46.7424 2.1778 9.2271 26.5083 -1.2060 19.6258 -12.7635 2.3989 -9.6517 -27.8559 0.0000 0.0000 0.0000 4.9054 21.5299 -51.7533 -3.0533 -10.7808 31.5442 -0.1955 -6.8880 -13.5580 -1.7038 8.2198 -23.3838 1.1184 -3.6126 14.2907 3.3576 -4.2603 0.7548 3.7897 -2.0174 -7.0276 -0.7075 5.5360 -3.0975 -1.5122 7.4292 -1.4387 -0.2686 3.7274 0.0966 -0.0000 -0.0000 0.0000 -98.9442 -36.7156 47.7905 141.4211 -47.2050 -102.6109 -0.0000 -0.0000 9.8753 -13.8316 32.9361 -7.6245 -7.1250 0.0000 -0.0000 -48.9692 56.0051 -15.8914 -0.0000 -0.0000 0.0000 86.3165 44.0591 31.8442 -147.4240 43.0016 -106.8680 0.0000 0.0000 27.5376 20.5819 0.7296 0.2740 7.1250 -0.0000 -0.0000 34.4292 -27.6858 17.6695
-1.1551 17.3707 2.0047 -318.2620 93.0028 -284.5450 0.0000 0.0000 0.0000 3.8185 -16.3694 -46.6541 2.1055 9.0826 26.0539 -1.2079 19.7368 -13.2114 2.4969 -9.8323 -28.4355 0.0000 0.0000 0.0000 5.0337 21.2415 -52.1927 -3.1884 -10.9940 32.2597 -0.2131 -7.0789 -14.0321 -1.7055 8.2237 -23.3957 0.9287 -3.6574 14.4057 3.3924 -4.3438 0.6564 3.9648 -2.0493 -7.1758 -0.6462 5.5533 -2.6094 -1.3418 7.4426 -1.8265 -0.2500 3.7397 -0.1032 -0.0000 0.0000 0.0000 -98.7941 -36.1120 47.0900 141.2093 -47.3369 -102.4553 -0.0000 -0.0000 11.7732 -16.8751 33.0822 -9.4017 -7.1250 0.0000 -0.0000 -51.7064 55.4748 -16.4382 -0.0000 0.0000 0.0000 86.7706 43.7024 32.5754 -147.0710 43.2754 -106.6266 0.0000 0.0000 27.7554 21.6584 0.6468 0.2568 7.1250 -0.0000 -0.0000 35.0922 -27.6381 18.2324
